<mxfile host="app.diagrams.net" modified="2023-05-04T09:55:04.038Z" agent="Mozilla/5.0 (Windows NT 10.0; Win64; x64) AppleWebKit/537.36 (KHTML, like Gecko) Chrome/112.0.0.0 Safari/537.36" etag="Ac16gZd6cztfoO7TZVLN" version="21.2.7" type="github">
  <diagram id="C5RBs43oDa-KdzZeNtuy" name="Page-1">
    <mxGraphModel dx="1222" dy="805" grid="1" gridSize="10" guides="1" tooltips="1" connect="1" arrows="1" fold="1" page="1" pageScale="1" pageWidth="827" pageHeight="1169" math="0" shadow="0">
      <root>
        <mxCell id="WIyWlLk6GJQsqaUBKTNV-0" />
        <mxCell id="WIyWlLk6GJQsqaUBKTNV-1" parent="WIyWlLk6GJQsqaUBKTNV-0" />
        <mxCell id="-cd-iUKpvVh5_6NBv5oS-0" value="HttpService" style="swimlane;fontStyle=1;align=center;verticalAlign=top;childLayout=stackLayout;horizontal=1;startSize=26;horizontalStack=0;resizeParent=1;resizeParentMax=0;resizeLast=0;collapsible=1;marginBottom=0;whiteSpace=wrap;html=1;" vertex="1" parent="WIyWlLk6GJQsqaUBKTNV-1">
          <mxGeometry x="480" y="140" width="430" height="90" as="geometry" />
        </mxCell>
        <mxCell id="-cd-iUKpvVh5_6NBv5oS-1" value="+ field: type" style="text;strokeColor=none;fillColor=none;align=left;verticalAlign=top;spacingLeft=4;spacingRight=4;overflow=hidden;rotatable=0;points=[[0,0.5],[1,0.5]];portConstraint=eastwest;whiteSpace=wrap;html=1;" vertex="1" parent="-cd-iUKpvVh5_6NBv5oS-0">
          <mxGeometry y="26" width="430" height="26" as="geometry" />
        </mxCell>
        <mxCell id="-cd-iUKpvVh5_6NBv5oS-2" value="" style="line;strokeWidth=1;fillColor=none;align=left;verticalAlign=middle;spacingTop=-1;spacingLeft=3;spacingRight=3;rotatable=0;labelPosition=right;points=[];portConstraint=eastwest;strokeColor=inherit;" vertex="1" parent="-cd-iUKpvVh5_6NBv5oS-0">
          <mxGeometry y="52" width="430" height="8" as="geometry" />
        </mxCell>
        <mxCell id="-cd-iUKpvVh5_6NBv5oS-3" value="+ new(f: F): Self" style="text;strokeColor=none;fillColor=none;align=left;verticalAlign=top;spacingLeft=4;spacingRight=4;overflow=hidden;rotatable=0;points=[[0,0.5],[1,0.5]];portConstraint=eastwest;whiteSpace=wrap;html=1;" vertex="1" parent="-cd-iUKpvVh5_6NBv5oS-0">
          <mxGeometry y="60" width="430" height="30" as="geometry" />
        </mxCell>
        <mxCell id="-cd-iUKpvVh5_6NBv5oS-4" value="&lt;div&gt;&amp;nbsp; &amp;nbsp; F: Fn() -&amp;gt; I + Send + Clone + &#39;static,&lt;/div&gt;&lt;div&gt;&amp;nbsp; &amp;nbsp; I: IntoServiceFactory&amp;lt;S, Request&amp;gt;,&lt;/div&gt;&lt;div&gt;&lt;br&gt;&lt;/div&gt;&lt;div&gt;&amp;nbsp; &amp;nbsp; S: ServiceFactory&amp;lt;Request, Config = AppConfig&amp;gt; + &#39;static,&lt;/div&gt;&lt;div&gt;&amp;nbsp; &amp;nbsp; S::Error: Into&amp;lt;Error&amp;gt; + &#39;static,&lt;/div&gt;&lt;div&gt;&amp;nbsp; &amp;nbsp; S::InitError: fmt::Debug,&lt;/div&gt;&lt;div&gt;&amp;nbsp; &amp;nbsp; S::Response: Into&amp;lt;Response&amp;lt;B&amp;gt;&amp;gt; + &#39;static,&lt;/div&gt;&lt;div&gt;&amp;nbsp; &amp;nbsp; &amp;lt;S::Service as Service&amp;lt;Request&amp;gt;&amp;gt;::Future: &#39;static,&lt;/div&gt;&lt;div&gt;&amp;nbsp; &amp;nbsp; S::Service: &#39;static,&lt;/div&gt;&lt;div&gt;&lt;br&gt;&lt;/div&gt;&lt;div&gt;&amp;nbsp; &amp;nbsp; B: MessageBody + &#39;static,&lt;/div&gt;&lt;div&gt;&lt;br&gt;&lt;/div&gt;" style="shape=note;whiteSpace=wrap;html=1;backgroundOutline=1;darkOpacity=0.05;align=left;" vertex="1" parent="WIyWlLk6GJQsqaUBKTNV-1">
          <mxGeometry x="10" y="90" width="437" height="180" as="geometry" />
        </mxCell>
        <mxCell id="-cd-iUKpvVh5_6NBv5oS-7" value="&lt;p style=&quot;margin:0px;margin-top:4px;text-align:center;&quot;&gt;&lt;i&gt;&amp;lt;&amp;lt;Interface&amp;gt;&amp;gt;&lt;/i&gt;&lt;br&gt;ServiceFactory&amp;lt;Req&amp;gt;&lt;br&gt;&lt;/p&gt;&lt;p style=&quot;margin:0px;margin-left:4px;&quot;&gt;&lt;br&gt;&lt;/p&gt;&lt;hr size=&quot;1&quot;&gt;&lt;p style=&quot;margin:0px;margin-left:4px;&quot;&gt;+ fn &lt;a style=&quot;font-family: &amp;quot;Source Code Pro&amp;quot;, monospace; font-size: 1em; background: transparent; box-sizing: border-box; text-decoration-line: none; color: rgb(154, 110, 49);&quot; class=&quot;fnname&quot; href=&quot;https://docs.rs/actix-service/latest/actix_service/trait.ServiceFactory.html#tymethod.new_service&quot;&gt;new_service&lt;/a&gt;&lt;span style=&quot;font-family: &amp;quot;Source Code Pro&amp;quot;, monospace; font-size: 1em; background-color: rgb(245, 245, 245);&quot;&gt;(&amp;amp;self, cfg: Self::&lt;/span&gt;&lt;a style=&quot;font-family: &amp;quot;Source Code Pro&amp;quot;, monospace; font-size: 1em; background: transparent; box-sizing: border-box; text-decoration-line: none; color: rgb(186, 93, 0);&quot; title=&quot;type actix_service::ServiceFactory::Config&quot; href=&quot;https://docs.rs/actix-service/latest/actix_service/trait.ServiceFactory.html#associatedtype.Config&quot; class=&quot;type&quot;&gt;Config&lt;/a&gt;&lt;span style=&quot;font-family: &amp;quot;Source Code Pro&amp;quot;, monospace; font-size: 1em; background-color: rgb(245, 245, 245);&quot;&gt;) -&amp;gt; Self::&lt;/span&gt;&lt;a style=&quot;font-family: &amp;quot;Source Code Pro&amp;quot;, monospace; font-size: 1em; background: transparent; box-sizing: border-box; text-decoration-line: none; color: rgb(186, 93, 0);&quot; title=&quot;type actix_service::ServiceFactory::Future&quot; href=&quot;https://docs.rs/actix-service/latest/actix_service/trait.ServiceFactory.html#associatedtype.Future&quot; class=&quot;type&quot;&gt;Future&lt;/a&gt;&lt;span style=&quot;font-family: &amp;quot;Source Code Pro&amp;quot;, monospace; font-size: 1em; background-color: rgb(245, 245, 245);&quot;&gt;;&lt;/span&gt;&lt;/p&gt;" style="verticalAlign=top;align=left;overflow=fill;fontSize=12;fontFamily=Helvetica;html=1;whiteSpace=wrap;" vertex="1" parent="WIyWlLk6GJQsqaUBKTNV-1">
          <mxGeometry x="480" y="500" width="430" height="90" as="geometry" />
        </mxCell>
        <mxCell id="-cd-iUKpvVh5_6NBv5oS-8" value="&lt;div&gt;&lt;div&gt;&amp;nbsp; &amp;nbsp; type Response;&lt;/div&gt;&lt;div&gt;&amp;nbsp; &amp;nbsp; type Error;&lt;/div&gt;&lt;div&gt;&amp;nbsp; &amp;nbsp; type Config;&lt;/div&gt;&lt;div&gt;&amp;nbsp; &amp;nbsp; type Service: Service&amp;lt;Req, Response = Self::Response, Error = Self::Error&amp;gt;;&lt;/div&gt;&lt;div&gt;&amp;nbsp; &amp;nbsp; type InitError;&lt;/div&gt;&lt;div&gt;&amp;nbsp; &amp;nbsp; type Future: Future&amp;lt;Output = Result&amp;lt;Self::Service, Self::InitError&amp;gt;&amp;gt;;&lt;/div&gt;&lt;/div&gt;" style="shape=note;whiteSpace=wrap;html=1;backgroundOutline=1;darkOpacity=0.05;align=left;" vertex="1" parent="WIyWlLk6GJQsqaUBKTNV-1">
          <mxGeometry x="13" y="490" width="437" height="100" as="geometry" />
        </mxCell>
        <mxCell id="-cd-iUKpvVh5_6NBv5oS-9" value="&lt;p style=&quot;margin:0px;margin-top:4px;text-align:center;&quot;&gt;&lt;i&gt;&amp;lt;&amp;lt;Interface&amp;gt;&amp;gt;&lt;/i&gt;&lt;br&gt;IntoServiceFactory&amp;lt;Req&amp;gt;&lt;br&gt;&lt;/p&gt;&lt;p style=&quot;margin:0px;margin-left:4px;&quot;&gt;&lt;br&gt;&lt;/p&gt;&lt;hr size=&quot;1&quot;&gt;&lt;p style=&quot;margin:0px;margin-left:4px;&quot;&gt;+&amp;nbsp;fn &lt;a style=&quot;font-family: &amp;quot;Source Code Pro&amp;quot;, monospace; font-size: 1em; background: transparent; box-sizing: border-box; text-decoration-line: none; color: rgb(154, 110, 49);&quot; class=&quot;fnname&quot; href=&quot;https://docs.rs/actix-service/2.0.2/actix_service/trait.IntoServiceFactory.html#tymethod.into_factory&quot;&gt;into_factory&lt;/a&gt;&lt;span style=&quot;font-family: &amp;quot;Source Code Pro&amp;quot;, monospace; font-size: 1em; background-color: rgb(245, 245, 245);&quot;&gt;(self) -&amp;gt; SF;&lt;/span&gt;&lt;/p&gt;" style="verticalAlign=top;align=left;overflow=fill;fontSize=12;fontFamily=Helvetica;html=1;whiteSpace=wrap;" vertex="1" parent="WIyWlLk6GJQsqaUBKTNV-1">
          <mxGeometry x="480" y="320" width="430" height="90" as="geometry" />
        </mxCell>
        <mxCell id="-cd-iUKpvVh5_6NBv5oS-10" value="SF: ServiceFactory&amp;lt;Req&amp;gt;" style="shape=note;whiteSpace=wrap;html=1;backgroundOutline=1;darkOpacity=0.05;align=left;" vertex="1" parent="WIyWlLk6GJQsqaUBKTNV-1">
          <mxGeometry x="13" y="350" width="437" height="50" as="geometry" />
        </mxCell>
        <mxCell id="-cd-iUKpvVh5_6NBv5oS-11" value="&lt;p style=&quot;margin:0px;margin-top:4px;text-align:center;&quot;&gt;&lt;i&gt;&amp;lt;&amp;lt;Interface&amp;gt;&amp;gt;&lt;/i&gt;&lt;br&gt;Service&amp;lt;Req&amp;gt;&lt;br&gt;&lt;/p&gt;&lt;p style=&quot;margin:0px;margin-left:4px;&quot;&gt;&lt;br&gt;&lt;/p&gt;&lt;hr size=&quot;1&quot;&gt;&lt;p style=&quot;margin:0px;margin-left:4px;&quot;&gt;+&amp;nbsp;fn poll_ready(&amp;amp;self, ctx: &amp;amp;mut Context&amp;lt;&#39;_&amp;gt;) -&amp;gt; Poll&amp;lt;Result&amp;lt;(), Self::Error&amp;gt;&amp;gt;;&lt;/p&gt;&lt;p style=&quot;margin:0px;margin-left:4px;&quot;&gt;+ fn call(&amp;amp;self, req: Req) -&amp;gt; Self::Future;&lt;/p&gt;" style="verticalAlign=top;align=left;overflow=fill;fontSize=12;fontFamily=Helvetica;html=1;whiteSpace=wrap;" vertex="1" parent="WIyWlLk6GJQsqaUBKTNV-1">
          <mxGeometry x="480" y="670" width="430" height="90" as="geometry" />
        </mxCell>
        <mxCell id="-cd-iUKpvVh5_6NBv5oS-12" value="&lt;div&gt;&amp;nbsp; &amp;nbsp; type Response;&lt;/div&gt;&lt;div&gt;&amp;nbsp; &amp;nbsp; type Error;&lt;/div&gt;&lt;div&gt;&amp;nbsp; &amp;nbsp; type Future: Future&amp;lt;Output = Result&amp;lt;Self::Response, Self::Error&amp;gt;&amp;gt;;&lt;/div&gt;" style="shape=note;whiteSpace=wrap;html=1;backgroundOutline=1;darkOpacity=0.05;align=left;" vertex="1" parent="WIyWlLk6GJQsqaUBKTNV-1">
          <mxGeometry x="10" y="660" width="440" height="100" as="geometry" />
        </mxCell>
      </root>
    </mxGraphModel>
  </diagram>
</mxfile>
